#!OML:ASF E:\CV Data\Top Level 1\Subject 1\Session 1\player.ASF
:FULLY-SPECIFIED
:DEGREES
615
root 8.43572 16.9861 -10.6965 -143.828 -96.3389 -212.229
lowerback 14.953 1.98134 2.48049
upperback 3.24712 2.95265 2.06013
thorax -4.9128 1.35918 0.218308
lowerneck -15.9285 13.085 -3.38269
upperneck 12.6839 18.6411 -1.26947
head 6.23953 8.73065 1.90583
rclavicle 8.74653e-015 -3.18055e-015
rhumerus -24.4838 39.4593 -91.1847
rradius 114.366
rwrist -35.5696
rhand -27.2793 12.2262
rfingers 7.12502
rthumb -0.689807 -17.7524
lclavicle 8.74653e-015 -3.18055e-015
lhumerus -13.6966 -52.4514 101.175
lradius 85.6544
lwrist 7.33473
lhand -19.4174 9.27343
lfingers 7.12502
lthumb 6.90224 39.1409
rfemur -20.4513 0.830135 18.5549
rtibia 43.5585
rfoot -26.3671 -1.34915
rtoes -5.51469
lfemur -26.0005 8.04101 -7.7308
ltibia 45.4874
lfoot -14.8568 -12.3981
ltoes -3.11701
616
root 8.4412 16.988 -10.6958 -141.255 -95.9609 -214.744
lowerback 14.8233 1.93366 2.44535
upperback 3.17105 2.88826 2.11437
thorax -4.92819 1.32908 0.309912
lowerneck -15.8566 13.2782 -3.33323
upperneck 12.6701 18.866 -1.13878
head 6.21052 8.85671 1.95049
rclavicle -3.57812e-014 -2.38542e-015
rhumerus -24.6191 39.3628 -90.9747
rradius 115.11
rwrist -34.6378
rhand -27.3161 12.3817
rfingers 7.12502
rthumb -0.72534 -17.5968
lclavicle -3.57812e-014 -2.38542e-015
lhumerus -13.6619 -52.7845 101.486
lradius 85.9521
lwrist 6.79265
lhand -20.4608 9.08723
lfingers 7.12502
lthumb 5.8949 38.9852
rfemur -20.6131 0.851427 18.5375
rtibia 43.5366
rfoot -26.3263 -0.920962
rtoes -5.46515
lfemur -25.2232 7.63505 -7.87204
ltibia 44.2978
lfoot -15.6573 -10.3554
ltoes -4.5509
617
root 8.44542 16.9894 -10.6953 -138.638 -95.6162 -217.301
lowerback 14.6873 1.88557 2.40916
upperback 3.10297 2.82173 2.15295
thorax -4.93064 1.29811 0.386248
lowerneck -15.8177 13.4508 -3.27088
upperneck 12.6624 19.0634 -1.01502
head 6.19104 8.96843 1.99173
rclavicle 7.15625e-015 -2.38542e-014
rhumerus -24.7909 39.2177 -90.8292
rradius 115.85
rwrist -33.6554
rhand -27.3208 12.5237
rfingers 7.12502
rthumb -0.729966 -17.4548
lclavicle 7.15625e-015 -2.38542e-014
lhumerus -13.7334 -53.1132 101.881
lradius 86.2972
lwrist 6.21684
lhand -21.7098 8.96411
lfingers 7.12502
lthumb 4.68898 38.8922
rfemur -20.769 0.861216 18.5093
rtibia 43.524
rfoot -26.2975 -0.51125
rtoes -5.38888
lfemur -24.4688 7.18669 -8.00715
ltibia 43.1512
lfoot -16.2992 -8.45663
ltoes -5.41116
618
root 8.44837 16.9912 -10.6952 -136.014 -95.3044 -219.863
lowerback 14.5478 1.84206 2.36885
upperback 3.03836 2.75978 2.17768
thorax -4.92668 1.26957 0.449482
lowerneck -15.7961 13.6044 -3.19381
upperneck 12.6562 19.2335 -0.895148
head 6.17692 9.06671 2.02893
rclavicle 1.09332e-014 1.74931e-014
rhumerus -25.0288 39.0324 -90.7585
rradius 116.596
rwrist -32.6761
rhand -27.3426 12.681
rfingers 7.12502
rthumb -0.750948 -17.2974
lclavicle 1.09332e-014 1.74931e-014
lhumerus -13.9042 -53.427 102.342
lradius 86.7064
lwrist 5.61271
lhand -22.9842 8.78679
lfingers 7.12502
lthumb 3.45838 38.7385
rfemur -20.9154 0.859653 18.473
rtibia 43.5133
rfoot -26.2786 -0.117542
rtoes -5.29094
lfemur -23.748 6.70091 -8.14028
ltibia 42.0769
lfoot -16.8141 -6.74959
ltoes -5.7006
619
root 8.45024 16.9931 -10.6953 -133.413 -95.032 -222.4
lowerback 14.4017 1.79912 2.33096
upperback 2.98051 2.69805 2.19595
thorax -4.91127 1.24121 0.504676
lowerneck -15.7861 13.7383 -3.11234
upperneck 12.6404 19.3793 -0.794306
head 6.16438 9.15176 2.05839
rclavicle 4.08502e-014 2.70347e-014
rhumerus -25.3368 38.8373 -90.7552
rradius 117.349
rwrist -31.7341
rhand -27.425 12.8854
rfingers 7.12502
rthumb -0.830585 -17.0927
lclavicle 4.08502e-014 2.70347e-014
lhumerus -14.1808 -53.6862 102.9
lradius 87.1554
lwrist 4.90162
lhand -24.2224 8.6223
lfingers 7.12502
lthumb 2.26254 38.5901
rfemur -21.0487 0.845564 18.4372
rtibia 43.4958
rfoot -26.2616 0.253873
rtoes -5.18162
lfemur -23.0795 6.21217 -8.26394
ltibia 41.0941
lfoot -17.2188 -5.14502
ltoes -5.8501
620
root 8.45126 16.9959 -10.6959 -130.986 -94.8012 -224.758
lowerback 14.2509 1.75304 2.29589
upperback 2.9252 2.63202 2.20569
thorax -4.88985 1.2108 0.550079
lowerneck -15.765 13.8572 -3.03633
upperneck 12.5987 19.5055 -0.703339
head 6.14257 9.2275 2.08172
rclavicle 1.02374e-014 -8.74653e-015
rhumerus -25.7272 38.6432 -90.8372
rradius 118.101
rwrist -30.8396
rhand -27.587 13.1414
rfingers 7.12502
rthumb -0.987015 -16.836
lclavicle 1.02374e-014 -8.74653e-015
lhumerus -14.5707 -53.8824 103.545
lradius 87.6466
lwrist 4.06139
lhand -25.3197 8.44175
lfingers 7.12502
lthumb 1.20284 38.4181
rfemur -21.1662 0.819728 18.3999
rtibia 43.462
rfoot -26.2401 0.604722
rtoes -5.03952
lfemur -22.4814 5.7126 -8.37359
ltibia 40.2136
lfoot -17.4873 -3.63207
ltoes -5.9585
621
root 8.45165 17.0004 -10.6974 -128.953 -94.6054 -226.718
lowerback 14.0994 1.70361 2.25046
upperback 2.87207 2.5598 2.20968
thorax -4.86573 1.17755 0.596215
lowerneck -15.7232 13.958 -3.00013
upperneck 12.5188 19.6129 -0.612341
head 6.10167 9.29439 2.1044
rclavicle 2.45499e-014 1.86858e-014
rhumerus -26.2035 38.4555 -91.0004
rradius 118.844
rwrist -29.9895
rhand -27.8233 13.4497
rfingers 7.12502
rthumb -1.21526 -16.5266
lclavicle 2.45499e-014 1.86858e-014
lhumerus -15.067 -54.0002 104.267
lradius 88.1752
lwrist 3.08894
lhand -26.2103 8.27648
lfingers 7.12502
lthumb 0.342609 38.2559
rfemur -21.2649 0.782282 18.3536
rtibia 43.4052
rfoot -26.2078 0.923631
rtoes -4.86836
lfemur -21.9738 5.21908 -8.47232
ltibia 39.445
lfoot -17.634 -2.34337
ltoes -6.03805
622
root 8.45159 17.0072 -10.7004 -127.508 -94.4393 -228.089
lowerback 13.9526 1.63977 2.17916
upperback 2.82468 2.4646 2.20971
thorax -4.83891 1.13335 0.656542
lowerneck -15.6775 14.0548 -3.00269
upperneck 12.4116 19.722 -0.523605
head 6.04786 9.36143 2.12919
rclavicle -1.85864e-014 -2.54444e-014
rhumerus -26.7555 38.3065 -91.2486
rradius 119.566
rwrist -29.1682
rhand -28.1074 13.7962
rfingers 7.12502
rthumb -1.48963 -16.1783
lclavicle -1.85864e-014 -2.54444e-014
lhumerus -15.648 -54.0134 105.032
lradius 88.7317
lwrist 1.98455
lhand -26.8695 8.10471
lfingers 7.12502
lthumb -0.294016 38.0843
rfemur -21.3382 0.745052 18.2937
rtibia 43.3194
rfoot -26.1591 1.19619
rtoes -4.66785
lfemur -21.5749 4.74384 -8.56032
ltibia 38.7936
lfoot -17.6532 -1.34065
ltoes -6.15272
623
root 8.45124 17.0165 -10.7056 -126.891 -94.2985 -228.63
lowerback 13.8176 1.56538 2.07483
upperback 2.77898 2.35092 2.20011
thorax -4.81736 1.08049 0.728021
lowerneck -15.6427 14.1454 -3.00711
upperneck 12.3056 19.8259 -0.44777
head 5.99751 9.42427 2.15084
rclavicle -5.76476e-015 2.42517e-014
rhumerus -27.3901 38.1626 -91.5902
rradius 120.254
rwrist -28.3487
rhand -28.3907 14.1547
rfingers 7.12502
rthumb -1.76321 -15.8178
lclavicle -5.76476e-015 2.42517e-014
lhumerus -16.3273 -53.9495 105.838
lradius 89.3108
lwrist 0.781877
lhand -27.3293 7.91023
lfingers 7.12502
lthumb -0.738096 37.8887
rfemur -21.3829 0.710716 18.2153
rtibia 43.1996
rfoot -26.0896 1.4092
rtoes -4.44696
lfemur -21.2924 4.30999 -8.64169
ltibia 38.2576
lfoot -17.5538 -0.674884
ltoes -6.28127
624
root 8.45035 17.0283 -10.7135 -127.058 -94.1804 -228.388
lowerback 13.6969 1.48167 1.93675
upperback 2.73241 2.22067 2.18316
thorax -4.80509 1.01991 0.813043
lowerneck -15.6215 14.2318 -3.0132
upperneck 12.2104 19.926 -0.374467
head 5.95294 9.48422 2.17318
rclavicle -2.33572e-014 -7.95139e-016
rhumerus -28.117 38.0193 -92.0359
rradius 120.898
rwrist -27.5266
rhand -28.637 14.5246
rfingers 7.12502
rthumb -2.00114 -15.4458
lclavicle -2.33572e-014 -7.95139e-016
lhumerus -17.1068 -53.8189 106.664
lradius 89.9152
lwrist -0.460011
lhand -27.6464 7.65982
lfingers 7.12502
lthumb -1.04442 37.637
rfemur -21.3925 0.694982 18.1273
rtibia 43.0406
rfoot -26.0031 1.54058
rtoes -4.25455
lfemur -21.109 3.95267 -8.71433
ltibia 37.8209
lfoot -17.367 -0.343137
ltoes -6.40177
625
root 8.44827 17.0426 -10.7236 -127.907 -94.0906 -227.473
lowerback 13.5897 1.39392 1.78371
upperback 2.68726 2.0834 2.16258
thorax -4.79846 0.956011 0.903359
lowerneck -15.6229 14.3055 -2.98786
upperneck 12.1411 20.0101 -0.335661
head 5.92746 9.53284 2.18402
rclavicle 1.25234e-014 -1.98785e-015
rhumerus -28.9392 37.8554 -92.579
rradius 121.491
rwrist -26.7063
rhand -28.8139 14.9164
rfingers 7.12502
rthumb -2.172 -15.0523
lclavicle 1.25234e-014 -1.98785e-015
lhumerus -17.9948 -53.6427 107.539
lradius 90.5231
lwrist -1.69768
lhand -27.9059 7.37264
lfingers 7.12502
lthumb -1.29505 37.3485
rfemur -21.3528 0.704809 18.0399
rtibia 42.8363
rfoot -25.9032 1.59707
rtoes -4.06772
lfemur -20.9902 3.68942 -8.77217
ltibia 37.4527
lfoot -17.1358 -0.321083
ltoes -6.34544
